<?xml version="1.0" encoding="UTF-8" standalone="no"?>
<!DOCTYPE svg PUBLIC "-//W3C//DTD SVG 1.1//EN"
 "http://www.w3.org/Graphics/SVG/1.1/DTD/svg11.dtd">
<!-- Generated by graphviz version 13.1.2 (20250808.2320)
 -->
<!-- Title: model_graph Pages: 1 -->
<svg width="1232pt" height="311pt"
 viewBox="0.00 0.00 1232.00 311.00" xmlns="http://www.w3.org/2000/svg" xmlns:xlink="http://www.w3.org/1999/xlink">
<g id="graph0" class="graph" transform="scale(1 1) rotate(0) translate(4 307)">
<title>model_graph</title>
<polygon fill="white" stroke="none" points="-4,4 -4,-307 1228,-307 1228,4 -4,4"/>
<g id="clust1" class="cluster">
<title>cluster_core</title>
<path fill="none" stroke="#698b22" d="M511,-8C511,-8 671,-8 671,-8 677,-8 683,-14 683,-20 683,-20 683,-173.75 683,-173.75 683,-179.75 677,-185.75 671,-185.75 671,-185.75 511,-185.75 511,-185.75 505,-185.75 499,-179.75 499,-173.75 499,-173.75 499,-20 499,-20 499,-14 505,-8 511,-8"/>
<text xml:space="preserve" text-anchor="start" x="527.62" y="-169.25" font-family="Roboto" font-size="8.00"> &#160;&#160;&#160;&#160;&#160;&#160;&#160;&#160;&#160;</text>
<text xml:space="preserve" text-anchor="start" x="550.12" y="-169.25" font-family="Roboto" font-size="10.00"> &#160;&#160;&#160;&#160;&#160;&#160;&#160;&#160;&#160;</text>
<text xml:space="preserve" text-anchor="start" x="580.12" y="-169.25" font-family="Roboto" font-weight="bold" font-size="10.00">core</text>
<text xml:space="preserve" text-anchor="start" x="601.88" y="-169.25" font-family="Roboto" font-size="10.00"> &#160;&#160;&#160;&#160;&#160;&#160;&#160;&#160;&#160;</text>
<text xml:space="preserve" text-anchor="start" x="631.88" y="-169.25" font-family="Roboto" font-size="8.00"> &#160;&#160;&#160;&#160;&#160;&#160;&#160;&#160;&#160;</text>
</g>
<g id="clust2" class="cluster">
<title>cluster_glucose</title>
<path fill="none" stroke="#698b22" d="M20,-214.25C20,-214.25 200,-214.25 200,-214.25 206,-214.25 212,-220.25 212,-226.25 212,-226.25 212,-283 212,-283 212,-289 206,-295 200,-295 200,-295 20,-295 20,-295 14,-295 8,-289 8,-283 8,-283 8,-226.25 8,-226.25 8,-220.25 14,-214.25 20,-214.25"/>
<text xml:space="preserve" text-anchor="start" x="38.38" y="-278.5" font-family="Roboto" font-size="8.00"> &#160;&#160;&#160;&#160;&#160;&#160;&#160;&#160;&#160;</text>
<text xml:space="preserve" text-anchor="start" x="60.88" y="-278.5" font-family="Roboto" font-size="10.00"> &#160;&#160;&#160;&#160;&#160;&#160;&#160;&#160;&#160;</text>
<text xml:space="preserve" text-anchor="start" x="90.88" y="-278.5" font-family="Roboto" font-weight="bold" font-size="10.00">glucose</text>
<text xml:space="preserve" text-anchor="start" x="129.12" y="-278.5" font-family="Roboto" font-size="10.00"> &#160;&#160;&#160;&#160;&#160;&#160;&#160;&#160;&#160;</text>
<text xml:space="preserve" text-anchor="start" x="159.12" y="-278.5" font-family="Roboto" font-size="8.00"> &#160;&#160;&#160;&#160;&#160;&#160;&#160;&#160;&#160;</text>
</g>
<g id="clust3" class="cluster">
<title>cluster_pressure</title>
<path fill="none" stroke="#698b22" d="M232,-214.25C232,-214.25 418,-214.25 418,-214.25 424,-214.25 430,-220.25 430,-226.25 430,-226.25 430,-283 430,-283 430,-289 424,-295 418,-295 418,-295 232,-295 232,-295 226,-295 220,-289 220,-283 220,-283 220,-226.25 220,-226.25 220,-220.25 226,-214.25 232,-214.25"/>
<text xml:space="preserve" text-anchor="start" x="250.38" y="-278.5" font-family="Roboto" font-size="8.00"> &#160;&#160;&#160;&#160;&#160;&#160;&#160;&#160;&#160;</text>
<text xml:space="preserve" text-anchor="start" x="272.88" y="-278.5" font-family="Roboto" font-size="10.00"> &#160;&#160;&#160;&#160;&#160;&#160;&#160;&#160;&#160;</text>
<text xml:space="preserve" text-anchor="start" x="302.88" y="-278.5" font-family="Roboto" font-weight="bold" font-size="10.00">pressure</text>
<text xml:space="preserve" text-anchor="start" x="347.12" y="-278.5" font-family="Roboto" font-size="10.00"> &#160;&#160;&#160;&#160;&#160;&#160;&#160;&#160;&#160;</text>
<text xml:space="preserve" text-anchor="start" x="377.12" y="-278.5" font-family="Roboto" font-size="8.00"> &#160;&#160;&#160;&#160;&#160;&#160;&#160;&#160;&#160;</text>
</g>
<g id="clust4" class="cluster">
<title>cluster_bmi</title>
<path fill="none" stroke="#698b22" d="M450,-214.25C450,-214.25 576,-214.25 576,-214.25 582,-214.25 588,-220.25 588,-226.25 588,-226.25 588,-283 588,-283 588,-289 582,-295 576,-295 576,-295 450,-295 450,-295 444,-295 438,-289 438,-283 438,-283 438,-226.25 438,-226.25 438,-220.25 444,-214.25 450,-214.25"/>
<text xml:space="preserve" text-anchor="start" x="451.12" y="-278.5" font-family="Roboto" font-size="8.00"> &#160;&#160;&#160;&#160;&#160;&#160;&#160;&#160;&#160;</text>
<text xml:space="preserve" text-anchor="start" x="473.62" y="-278.5" font-family="Roboto" font-size="10.00"> &#160;&#160;&#160;&#160;&#160;&#160;&#160;&#160;&#160;</text>
<text xml:space="preserve" text-anchor="start" x="503.62" y="-278.5" font-family="Roboto" font-weight="bold" font-size="10.00">bmi</text>
<text xml:space="preserve" text-anchor="start" x="522.38" y="-278.5" font-family="Roboto" font-size="10.00"> &#160;&#160;&#160;&#160;&#160;&#160;&#160;&#160;&#160;</text>
<text xml:space="preserve" text-anchor="start" x="552.38" y="-278.5" font-family="Roboto" font-size="8.00"> &#160;&#160;&#160;&#160;&#160;&#160;&#160;&#160;&#160;</text>
</g>
<g id="clust5" class="cluster">
<title>cluster_medications</title>
<path fill="none" stroke="#698b22" d="M608,-214.25C608,-214.25 962,-214.25 962,-214.25 968,-214.25 974,-220.25 974,-226.25 974,-226.25 974,-283 974,-283 974,-289 968,-295 962,-295 962,-295 608,-295 608,-295 602,-295 596,-289 596,-283 596,-283 596,-226.25 596,-226.25 596,-220.25 602,-214.25 608,-214.25"/>
<text xml:space="preserve" text-anchor="start" x="701.75" y="-278.5" font-family="Roboto" font-size="8.00"> &#160;&#160;&#160;&#160;&#160;&#160;&#160;&#160;&#160;</text>
<text xml:space="preserve" text-anchor="start" x="724.25" y="-278.5" font-family="Roboto" font-size="10.00"> &#160;&#160;&#160;&#160;&#160;&#160;&#160;&#160;&#160;</text>
<text xml:space="preserve" text-anchor="start" x="754.25" y="-278.5" font-family="Roboto" font-weight="bold" font-size="10.00">medications</text>
<text xml:space="preserve" text-anchor="start" x="815.75" y="-278.5" font-family="Roboto" font-size="10.00"> &#160;&#160;&#160;&#160;&#160;&#160;&#160;&#160;&#160;</text>
<text xml:space="preserve" text-anchor="start" x="845.75" y="-278.5" font-family="Roboto" font-size="8.00"> &#160;&#160;&#160;&#160;&#160;&#160;&#160;&#160;&#160;</text>
</g>
<g id="clust6" class="cluster">
<title>cluster_reminders</title>
<path fill="none" stroke="#698b22" d="M994,-214.25C994,-214.25 1150,-214.25 1150,-214.25 1156,-214.25 1162,-220.25 1162,-226.25 1162,-226.25 1162,-283 1162,-283 1162,-289 1156,-295 1150,-295 1150,-295 994,-295 994,-295 988,-295 982,-289 982,-283 982,-283 982,-226.25 982,-226.25 982,-220.25 988,-214.25 994,-214.25"/>
<text xml:space="preserve" text-anchor="start" x="993.62" y="-278.5" font-family="Roboto" font-size="8.00"> &#160;&#160;&#160;&#160;&#160;&#160;&#160;&#160;&#160;</text>
<text xml:space="preserve" text-anchor="start" x="1016.12" y="-278.5" font-family="Roboto" font-size="10.00"> &#160;&#160;&#160;&#160;&#160;&#160;&#160;&#160;&#160;</text>
<text xml:space="preserve" text-anchor="start" x="1046.12" y="-278.5" font-family="Roboto" font-weight="bold" font-size="10.00">reminders</text>
<text xml:space="preserve" text-anchor="start" x="1097.88" y="-278.5" font-family="Roboto" font-size="10.00"> &#160;&#160;&#160;&#160;&#160;&#160;&#160;&#160;&#160;</text>
<text xml:space="preserve" text-anchor="start" x="1127.88" y="-278.5" font-family="Roboto" font-size="8.00"> &#160;&#160;&#160;&#160;&#160;&#160;&#160;&#160;&#160;</text>
</g>
<!-- django_contrib_auth_base_user_AbstractBaseUser -->
<g id="node1" class="node">
<title>django_contrib_auth_base_user_AbstractBaseUser</title>
<polygon fill="white" stroke="none" points="515.25,-21.62 515.25,-46.38 666.75,-46.38 666.75,-21.62 515.25,-21.62"/>
<polygon fill="#1b563f" stroke="none" points="516.25,-22.62 516.25,-45.38 665.75,-45.38 665.75,-22.62 516.25,-22.62"/>
<text xml:space="preserve" text-anchor="start" x="521.25" y="-31.88" font-family="Roboto" font-size="8.00"> &#160;&#160;&#160;&#160;&#160;</text>
<text xml:space="preserve" text-anchor="start" x="534.75" y="-31.88" font-family="Roboto" font-weight="bold" font-size="10.00" fill="white"> &#160;&#160;&#160;&#160;&#160;AbstractBaseUser &#160;&#160;&#160;&#160;&#160;</text>
<polygon fill="none" stroke="black" points="515.25,-21.62 515.25,-46.38 666.75,-46.38 666.75,-21.62 515.25,-21.62"/>
</g>
<!-- core_models_CustomUser -->
<g id="node2" class="node">
<title>core_models_CustomUser</title>
<polygon fill="white" stroke="none" points="522.75,-113 522.75,-145 659.25,-145 659.25,-113 522.75,-113"/>
<polygon fill="#1b563f" stroke="none" points="523.75,-114 523.75,-144 658.25,-144 658.25,-114 523.75,-114"/>
<text xml:space="preserve" text-anchor="start" x="544.12" y="-130.5" font-family="Roboto" font-size="8.00"> &#160;&#160;&#160;&#160;&#160;</text>
<text xml:space="preserve" text-anchor="start" x="557.62" y="-130.5" font-family="Roboto" font-weight="bold" font-size="10.00" fill="white"> &#160;&#160;&#160;&#160;&#160;CustomUser</text>
<text xml:space="preserve" text-anchor="start" x="528.75" y="-120.5" font-family="Roboto" font-weight="bold" font-size="10.00" fill="white">&lt;</text>
<text xml:space="preserve" text-anchor="start" x="537" y="-120.5" font-family="Roboto" font-weight="bold" font-style="italic" font-size="10.00" fill="white">AbstractBaseUser</text>
<text xml:space="preserve" text-anchor="start" x="627" y="-120.5" font-family="Roboto" font-weight="bold" font-size="10.00" fill="white">&gt; &#160;&#160;&#160;&#160;&#160;</text>
<polygon fill="none" stroke="black" points="522.75,-113 522.75,-145 659.25,-145 659.25,-113 522.75,-113"/>
</g>
<!-- core_models_CustomUser&#45;&gt;django_contrib_auth_base_user_AbstractBaseUser -->
<g id="edge1" class="edge">
<title>core_models_CustomUser&#45;&gt;django_contrib_auth_base_user_AbstractBaseUser</title>
<path fill="none" stroke="black" d="M591,-109.18C591,-95.95 591,-78.01 591,-63.09"/>
<polygon fill="none" stroke="black" points="594.5,-63.43 591,-53.43 587.5,-63.43 594.5,-63.43"/>
<text xml:space="preserve" text-anchor="middle" x="610.88" y="-83.4" font-family="Roboto" font-size="8.00"> abstract</text>
<text xml:space="preserve" text-anchor="middle" x="610.88" y="-72.9" font-family="Roboto" font-size="8.00">inheritance</text>
</g>
<!-- glucose_models_GlucoseMeasurement -->
<g id="node3" class="node">
<title>glucose_models_GlucoseMeasurement</title>
<polygon fill="white" stroke="none" points="24.12,-227.88 24.12,-252.62 195.88,-252.62 195.88,-227.88 24.12,-227.88"/>
<polygon fill="#1b563f" stroke="none" points="25.12,-228.88 25.12,-251.62 194.88,-251.62 194.88,-228.88 25.12,-228.88"/>
<text xml:space="preserve" text-anchor="start" x="30.12" y="-238.12" font-family="Roboto" font-size="8.00"> &#160;&#160;&#160;&#160;&#160;</text>
<text xml:space="preserve" text-anchor="start" x="43.62" y="-238.12" font-family="Roboto" font-weight="bold" font-size="10.00" fill="white"> &#160;&#160;&#160;&#160;&#160;GlucoseMeasurement &#160;&#160;&#160;&#160;&#160;</text>
<polygon fill="none" stroke="black" points="24.12,-227.88 24.12,-252.62 195.88,-252.62 195.88,-227.88 24.12,-227.88"/>
</g>
<!-- glucose_models_GlucoseMeasurement&#45;&gt;core_models_CustomUser -->
<g id="edge2" class="edge">
<title>glucose_models_GlucoseMeasurement&#45;&gt;core_models_CustomUser</title>
<path fill="none" stroke="black" d="M186.11,-220.21C219.87,-211.88 260.12,-202.12 296.5,-193.75 370.55,-176.71 455.38,-158.48 514.91,-145.9"/>
<ellipse fill="black" stroke="black" cx="182.04" cy="-221.21" rx="4" ry="4"/>
<text xml:space="preserve" text-anchor="middle" x="348.25" y="-196.65" font-family="Roboto" font-size="8.00"> user (glucosemeasurement)</text>
</g>
<!-- pressure_models_PressureMeasurement -->
<g id="node4" class="node">
<title>pressure_models_PressureMeasurement</title>
<polygon fill="white" stroke="none" points="236.5,-227.88 236.5,-252.62 413.5,-252.62 413.5,-227.88 236.5,-227.88"/>
<polygon fill="#1b563f" stroke="none" points="237.5,-228.88 237.5,-251.62 412.5,-251.62 412.5,-228.88 237.5,-228.88"/>
<text xml:space="preserve" text-anchor="start" x="242.5" y="-238.12" font-family="Roboto" font-size="8.00"> &#160;&#160;&#160;&#160;&#160;</text>
<text xml:space="preserve" text-anchor="start" x="256" y="-238.12" font-family="Roboto" font-weight="bold" font-size="10.00" fill="white"> &#160;&#160;&#160;&#160;&#160;PressureMeasurement &#160;&#160;&#160;&#160;&#160;</text>
<polygon fill="none" stroke="black" points="236.5,-227.88 236.5,-252.62 413.5,-252.62 413.5,-227.88 236.5,-227.88"/>
</g>
<!-- pressure_models_PressureMeasurement&#45;&gt;core_models_CustomUser -->
<g id="edge3" class="edge">
<title>pressure_models_PressureMeasurement&#45;&gt;core_models_CustomUser</title>
<path fill="none" stroke="black" d="M369.12,-218.75C386.72,-210.73 407.23,-201.6 426,-193.75 463.82,-177.94 507.07,-161.28 539.8,-148.96"/>
<ellipse fill="black" stroke="black" cx="365.35" cy="-220.47" rx="4" ry="4"/>
<text xml:space="preserve" text-anchor="middle" x="480" y="-196.65" font-family="Roboto" font-size="8.00"> user (pressuremeasurement)</text>
</g>
<!-- bmi_models_BMIRecord -->
<g id="node5" class="node">
<title>bmi_models_BMIRecord</title>
<polygon fill="white" stroke="none" points="454.5,-227.88 454.5,-252.62 571.5,-252.62 571.5,-227.88 454.5,-227.88"/>
<polygon fill="#1b563f" stroke="none" points="455.5,-228.88 455.5,-251.62 570.5,-251.62 570.5,-228.88 455.5,-228.88"/>
<text xml:space="preserve" text-anchor="start" x="460.5" y="-238.12" font-family="Roboto" font-size="8.00"> &#160;&#160;&#160;&#160;&#160;</text>
<text xml:space="preserve" text-anchor="start" x="474" y="-238.12" font-family="Roboto" font-weight="bold" font-size="10.00" fill="white"> &#160;&#160;&#160;&#160;&#160;BMIRecord &#160;&#160;&#160;&#160;&#160;</text>
<polygon fill="none" stroke="black" points="454.5,-227.88 454.5,-252.62 571.5,-252.62 571.5,-227.88 454.5,-227.88"/>
</g>
<!-- bmi_models_BMIRecord&#45;&gt;core_models_CustomUser -->
<g id="edge4" class="edge">
<title>bmi_models_BMIRecord&#45;&gt;core_models_CustomUser</title>
<path fill="none" stroke="black" d="M529.99,-215.45C544.23,-195.5 564.29,-167.41 577.47,-148.96"/>
<ellipse fill="black" stroke="black" cx="527.46" cy="-218.99" rx="4" ry="4"/>
<text xml:space="preserve" text-anchor="middle" x="576.14" y="-196.65" font-family="Roboto" font-size="8.00"> user (bmirecord)</text>
</g>
<!-- medications_models_Medication -->
<g id="node6" class="node">
<title>medications_models_Medication</title>
<polygon fill="white" stroke="none" points="612.5,-227.88 612.5,-252.62 729.5,-252.62 729.5,-227.88 612.5,-227.88"/>
<polygon fill="#1b563f" stroke="none" points="613.5,-228.88 613.5,-251.62 728.5,-251.62 728.5,-228.88 613.5,-228.88"/>
<text xml:space="preserve" text-anchor="start" x="618.5" y="-238.12" font-family="Roboto" font-size="8.00"> &#160;&#160;&#160;&#160;&#160;</text>
<text xml:space="preserve" text-anchor="start" x="632" y="-238.12" font-family="Roboto" font-weight="bold" font-size="10.00" fill="white"> &#160;&#160;&#160;&#160;&#160;Medication &#160;&#160;&#160;&#160;&#160;</text>
<polygon fill="none" stroke="black" points="612.5,-227.88 612.5,-252.62 729.5,-252.62 729.5,-227.88 612.5,-227.88"/>
</g>
<!-- medications_models_Medication&#45;&gt;core_models_CustomUser -->
<g id="edge5" class="edge">
<title>medications_models_Medication&#45;&gt;core_models_CustomUser</title>
<path fill="none" stroke="black" d="M653.57,-215.45C638.97,-195.5 618.39,-167.41 604.88,-148.96"/>
<ellipse fill="black" stroke="black" cx="656.19" cy="-219.03" rx="4" ry="4"/>
<text xml:space="preserve" text-anchor="middle" x="677.75" y="-196.65" font-family="Roboto" font-size="8.00"> user (medication)</text>
</g>
<!-- medications_models_MedicationNotificationLog -->
<g id="node7" class="node">
<title>medications_models_MedicationNotificationLog</title>
<polygon fill="white" stroke="none" points="763.88,-227.88 763.88,-252.62 958.12,-252.62 958.12,-227.88 763.88,-227.88"/>
<polygon fill="#1b563f" stroke="none" points="764.88,-228.88 764.88,-251.62 957.12,-251.62 957.12,-228.88 764.88,-228.88"/>
<text xml:space="preserve" text-anchor="start" x="769.88" y="-238.12" font-family="Roboto" font-size="8.00"> &#160;&#160;&#160;&#160;&#160;</text>
<text xml:space="preserve" text-anchor="start" x="783.38" y="-238.12" font-family="Roboto" font-weight="bold" font-size="10.00" fill="white"> &#160;&#160;&#160;&#160;&#160;MedicationNotificationLog &#160;&#160;&#160;&#160;&#160;</text>
<polygon fill="none" stroke="black" points="763.88,-227.88 763.88,-252.62 958.12,-252.62 958.12,-227.88 763.88,-227.88"/>
</g>
<!-- medications_models_MedicationNotificationLog&#45;&gt;core_models_CustomUser -->
<g id="edge6" class="edge">
<title>medications_models_MedicationNotificationLog&#45;&gt;core_models_CustomUser</title>
<path fill="none" stroke="black" d="M811.07,-219.05C761.44,-198.97 685.92,-168.41 637.52,-148.82"/>
<ellipse fill="black" stroke="black" cx="814.94" cy="-220.61" rx="4" ry="4"/>
<text xml:space="preserve" text-anchor="middle" x="837.42" y="-196.65" font-family="Roboto" font-size="8.00"> user (medication_notification_logs)</text>
</g>
<!-- reminders_models_Reminder -->
<g id="node8" class="node">
<title>reminders_models_Reminder</title>
<polygon fill="white" stroke="none" points="998.5,-227.88 998.5,-252.62 1109.5,-252.62 1109.5,-227.88 998.5,-227.88"/>
<polygon fill="#1b563f" stroke="none" points="999.5,-228.88 999.5,-251.62 1108.5,-251.62 1108.5,-228.88 999.5,-228.88"/>
<text xml:space="preserve" text-anchor="start" x="1004.5" y="-238.12" font-family="Roboto" font-size="8.00"> &#160;&#160;&#160;&#160;&#160;</text>
<text xml:space="preserve" text-anchor="start" x="1018" y="-238.12" font-family="Roboto" font-weight="bold" font-size="10.00" fill="white"> &#160;&#160;&#160;&#160;&#160;Reminder &#160;&#160;&#160;&#160;&#160;</text>
<polygon fill="none" stroke="black" points="998.5,-227.88 998.5,-252.62 1109.5,-252.62 1109.5,-227.88 998.5,-227.88"/>
</g>
<!-- reminders_models_Reminder&#45;&gt;core_models_CustomUser -->
<g id="edge7" class="edge">
<title>reminders_models_Reminder&#45;&gt;core_models_CustomUser</title>
<path fill="none" stroke="black" d="M995.02,-219.57C989.28,-217.74 983.53,-215.94 978,-214.25 945.76,-204.43 937.76,-201.66 905,-193.75 824.3,-174.25 730.97,-155.82 667.17,-143.84"/>
<ellipse fill="black" stroke="black" cx="999.12" cy="-220.89" rx="4" ry="4"/>
<text xml:space="preserve" text-anchor="middle" x="973.38" y="-196.65" font-family="Roboto" font-size="8.00"> user (reminder)</text>
</g>
<!-- \n\n\n -->
<g id="node9" class="node">
<title>\n\n\n</title>
</g>
</g>
</svg>
